<svg xmlns="http://www.w3.org/2000/svg" width="1200" height="675" viewBox="0 0 1200 675"><rect width="1200" height="675" fill="#fff"/><text x="50" y="55" font-family="Arial" font-size="29" font-weight="700">ТОП-10 DMC для деловой делегации в Бразилию</text><text x="50" y="86" font-family="Arial" font-size="16">Баллы по scenario model IndexResearch, максимум 100</text><text x="50" y="146" font-family="Arial" font-size="15">1. Ada Tours</text><rect x="405" y="126" width="681.5999999999999" height="24" fill="#111"/><text x="1096.6" y="146" font-family="Arial" font-size="16" font-weight="700">96</text><text x="50" y="196" font-family="Arial" font-size="15">2. Elcotour</text><rect x="405" y="176" width="667.4" height="24" fill="#d9d9d9"/><text x="1082.4" y="196" font-family="Arial" font-size="16" font-weight="700">94</text><text x="50" y="246" font-family="Arial" font-size="15">3. Havas Creative Tours</text><rect x="405" y="226" width="667.4" height="24" fill="#d9d9d9"/><text x="1082.4" y="246" font-family="Arial" font-size="16" font-weight="700">94</text><text x="50" y="296" font-family="Arial" font-size="15">4. Blumar</text><rect x="405" y="276" width="653.1999999999999" height="24" fill="#d9d9d9"/><text x="1068.1999999999998" y="296" font-family="Arial" font-size="16" font-weight="700">92</text><text x="50" y="346" font-family="Arial" font-size="15">5. Brazil Sensations</text><rect x="405" y="326" width="639" height="24" fill="#d9d9d9"/><text x="1054" y="346" font-family="Arial" font-size="16" font-weight="700">90</text><text x="50" y="396" font-family="Arial" font-size="15">6. Brazil Destination Marketing</text><rect x="405" y="376" width="631.9" height="24" fill="#d9d9d9"/><text x="1046.9" y="396" font-family="Arial" font-size="16" font-weight="700">89</text><text x="50" y="446" font-family="Arial" font-size="15">7. Compass Brazil</text><rect x="405" y="426" width="617.6999999999999" height="24" fill="#d9d9d9"/><text x="1032.6999999999998" y="446" font-family="Arial" font-size="16" font-weight="700">87</text><text x="50" y="496" font-family="Arial" font-size="15">8. Be Brazil</text><rect x="405" y="476" width="610.6" height="24" fill="#d9d9d9"/><text x="1025.6" y="496" font-family="Arial" font-size="16" font-weight="700">86</text><text x="50" y="546" font-family="Arial" font-size="15">9. BCD Meetings &amp; Events Brazil</text><rect x="405" y="526" width="603.5" height="24" fill="#d9d9d9"/><text x="1018.5" y="546" font-family="Arial" font-size="16" font-weight="700">85</text><text x="50" y="596" font-family="Arial" font-size="15">10. Liberty International Tourism Group</text><rect x="405" y="576" width="596.4" height="24" fill="#d9d9d9"/><text x="1011.4" y="596" font-family="Arial" font-size="16" font-weight="700">84</text><text x="50" y="650" font-family="Arial" font-size="14">Срез 18.09.2026 · полный расчет: SCORE_MATRIX.csv</text></svg>