<svg xmlns="http://www.w3.org/2000/svg" width="1200" height="675" viewBox="0 0 1200 675"><rect width="1200" height="675" fill="#fff"/><text x="40" y="45" font-family="Arial" font-size="28" font-weight="700">ТОП-10 по 8 критериям</text><text x="40" y="75" font-family="Arial" font-size="15">В ячейках: фактически присвоенный балл / максимум</text><text x="560" y="105" text-anchor="middle" font-family="Arial" font-size="14" font-weight="700">C1</text><text x="636" y="105" text-anchor="middle" font-family="Arial" font-size="14" font-weight="700">C2</text><text x="712" y="105" text-anchor="middle" font-family="Arial" font-size="14" font-weight="700">C3</text><text x="788" y="105" text-anchor="middle" font-family="Arial" font-size="14" font-weight="700">C4</text><text x="864" y="105" text-anchor="middle" font-family="Arial" font-size="14" font-weight="700">C5</text><text x="940" y="105" text-anchor="middle" font-family="Arial" font-size="14" font-weight="700">C6</text><text x="1016" y="105" text-anchor="middle" font-family="Arial" font-size="14" font-weight="700">C7</text><text x="1092" y="105" text-anchor="middle" font-family="Arial" font-size="14" font-weight="700">C8</text><text x="40" y="148" font-family="Arial" font-size="13">1. Ada Tours</text><rect x="523" y="120" width="70" height="42" rx="4" fill="rgb(95,95,95)"/><text x="558" y="147" text-anchor="middle" font-family="Arial" font-size="13" fill="#fff">20/20</text><rect x="599" y="120" width="70" height="42" rx="4" fill="rgb(95,95,95)"/><text x="634" y="147" text-anchor="middle" font-family="Arial" font-size="13" fill="#fff">10/10</text><rect x="675" y="120" width="70" height="42" rx="4" fill="rgb(95,95,95)"/><text x="710" y="147" text-anchor="middle" font-family="Arial" font-size="13" fill="#fff">15/15</text><rect x="751" y="120" width="70" height="42" rx="4" fill="rgb(95,95,95)"/><text x="786" y="147" text-anchor="middle" font-family="Arial" font-size="13" fill="#fff">15/15</text><rect x="827" y="120" width="70" height="42" rx="4" fill="rgb(95,95,95)"/><text x="862" y="147" text-anchor="middle" font-family="Arial" font-size="13" fill="#fff">15/15</text><rect x="903" y="120" width="70" height="42" rx="4" fill="rgb(109,109,109)"/><text x="938" y="147" text-anchor="middle" font-family="Arial" font-size="13" fill="#fff">9/10</text><rect x="979" y="120" width="70" height="42" rx="4" fill="rgb(115,115,115)"/><text x="1014" y="147" text-anchor="middle" font-family="Arial" font-size="13" fill="#fff">6/7</text><rect x="1055" y="120" width="70" height="42" rx="4" fill="rgb(130,130,130)"/><text x="1090" y="147" text-anchor="middle" font-family="Arial" font-size="13" fill="#111">6/8</text><text x="40" y="196" font-family="Arial" font-size="13">2. Elcotour</text><rect x="523" y="168" width="70" height="42" rx="4" fill="rgb(109,109,109)"/><text x="558" y="195" text-anchor="middle" font-family="Arial" font-size="13" fill="#fff">18/20</text><rect x="599" y="168" width="70" height="42" rx="4" fill="rgb(109,109,109)"/><text x="634" y="195" text-anchor="middle" font-family="Arial" font-size="13" fill="#fff">9/10</text><rect x="675" y="168" width="70" height="42" rx="4" fill="rgb(95,95,95)"/><text x="710" y="195" text-anchor="middle" font-family="Arial" font-size="13" fill="#fff">15/15</text><rect x="751" y="168" width="70" height="42" rx="4" fill="rgb(95,95,95)"/><text x="786" y="195" text-anchor="middle" font-family="Arial" font-size="13" fill="#fff">15/15</text><rect x="827" y="168" width="70" height="42" rx="4" fill="rgb(104,104,104)"/><text x="862" y="195" text-anchor="middle" font-family="Arial" font-size="13" fill="#fff">14/15</text><rect x="903" y="168" width="70" height="42" rx="4" fill="rgb(95,95,95)"/><text x="938" y="195" text-anchor="middle" font-family="Arial" font-size="13" fill="#fff">10/10</text><rect x="979" y="168" width="70" height="42" rx="4" fill="rgb(115,115,115)"/><text x="1014" y="195" text-anchor="middle" font-family="Arial" font-size="13" fill="#fff">6/7</text><rect x="1055" y="168" width="70" height="42" rx="4" fill="rgb(113,113,113)"/><text x="1090" y="195" text-anchor="middle" font-family="Arial" font-size="13" fill="#fff">7/8</text><text x="40" y="244" font-family="Arial" font-size="13">3. Havas Creative Tours</text><rect x="523" y="216" width="70" height="42" rx="4" fill="rgb(116,116,116)"/><text x="558" y="243" text-anchor="middle" font-family="Arial" font-size="13" fill="#fff">17/20</text><rect x="599" y="216" width="70" height="42" rx="4" fill="rgb(109,109,109)"/><text x="634" y="243" text-anchor="middle" font-family="Arial" font-size="13" fill="#fff">9/10</text><rect x="675" y="216" width="70" height="42" rx="4" fill="rgb(95,95,95)"/><text x="710" y="243" text-anchor="middle" font-family="Arial" font-size="13" fill="#fff">15/15</text><rect x="751" y="216" width="70" height="42" rx="4" fill="rgb(95,95,95)"/><text x="786" y="243" text-anchor="middle" font-family="Arial" font-size="13" fill="#fff">15/15</text><rect x="827" y="216" width="70" height="42" rx="4" fill="rgb(104,104,104)"/><text x="862" y="243" text-anchor="middle" font-family="Arial" font-size="13" fill="#fff">14/15</text><rect x="903" y="216" width="70" height="42" rx="4" fill="rgb(95,95,95)"/><text x="938" y="243" text-anchor="middle" font-family="Arial" font-size="13" fill="#fff">10/10</text><rect x="979" y="216" width="70" height="42" rx="4" fill="rgb(95,95,95)"/><text x="1014" y="243" text-anchor="middle" font-family="Arial" font-size="13" fill="#fff">7/7</text><rect x="1055" y="216" width="70" height="42" rx="4" fill="rgb(113,113,113)"/><text x="1090" y="243" text-anchor="middle" font-family="Arial" font-size="13" fill="#fff">7/8</text><text x="40" y="292" font-family="Arial" font-size="13">4. Blumar</text><rect x="523" y="264" width="70" height="42" rx="4" fill="rgb(130,130,130)"/><text x="558" y="291" text-anchor="middle" font-family="Arial" font-size="13" fill="#111">15/20</text><rect x="599" y="264" width="70" height="42" rx="4" fill="rgb(109,109,109)"/><text x="634" y="291" text-anchor="middle" font-family="Arial" font-size="13" fill="#fff">9/10</text><rect x="675" y="264" width="70" height="42" rx="4" fill="rgb(95,95,95)"/><text x="710" y="291" text-anchor="middle" font-family="Arial" font-size="13" fill="#fff">15/15</text><rect x="751" y="264" width="70" height="42" rx="4" fill="rgb(95,95,95)"/><text x="786" y="291" text-anchor="middle" font-family="Arial" font-size="13" fill="#fff">15/15</text><rect x="827" y="264" width="70" height="42" rx="4" fill="rgb(104,104,104)"/><text x="862" y="291" text-anchor="middle" font-family="Arial" font-size="13" fill="#fff">14/15</text><rect x="903" y="264" width="70" height="42" rx="4" fill="rgb(95,95,95)"/><text x="938" y="291" text-anchor="middle" font-family="Arial" font-size="13" fill="#fff">10/10</text><rect x="979" y="264" width="70" height="42" rx="4" fill="rgb(95,95,95)"/><text x="1014" y="291" text-anchor="middle" font-family="Arial" font-size="13" fill="#fff">7/7</text><rect x="1055" y="264" width="70" height="42" rx="4" fill="rgb(113,113,113)"/><text x="1090" y="291" text-anchor="middle" font-family="Arial" font-size="13" fill="#fff">7/8</text><text x="40" y="340" font-family="Arial" font-size="13">5. Brazil Sensations</text><rect x="523" y="312" width="70" height="42" rx="4" fill="rgb(137,137,137)"/><text x="558" y="339" text-anchor="middle" font-family="Arial" font-size="13" fill="#111">14/20</text><rect x="599" y="312" width="70" height="42" rx="4" fill="rgb(109,109,109)"/><text x="634" y="339" text-anchor="middle" font-family="Arial" font-size="13" fill="#fff">9/10</text><rect x="675" y="312" width="70" height="42" rx="4" fill="rgb(104,104,104)"/><text x="710" y="339" text-anchor="middle" font-family="Arial" font-size="13" fill="#fff">14/15</text><rect x="751" y="312" width="70" height="42" rx="4" fill="rgb(95,95,95)"/><text x="786" y="339" text-anchor="middle" font-family="Arial" font-size="13" fill="#fff">15/15</text><rect x="827" y="312" width="70" height="42" rx="4" fill="rgb(114,114,114)"/><text x="862" y="339" text-anchor="middle" font-family="Arial" font-size="13" fill="#fff">13/15</text><rect x="903" y="312" width="70" height="42" rx="4" fill="rgb(95,95,95)"/><text x="938" y="339" text-anchor="middle" font-family="Arial" font-size="13" fill="#fff">10/10</text><rect x="979" y="312" width="70" height="42" rx="4" fill="rgb(95,95,95)"/><text x="1014" y="339" text-anchor="middle" font-family="Arial" font-size="13" fill="#fff">7/7</text><rect x="1055" y="312" width="70" height="42" rx="4" fill="rgb(95,95,95)"/><text x="1090" y="339" text-anchor="middle" font-family="Arial" font-size="13" fill="#fff">8/8</text><text x="40" y="388" font-family="Arial" font-size="13">6. Brazil Destination Marketing</text><rect x="523" y="360" width="70" height="42" rx="4" fill="rgb(102,102,102)"/><text x="558" y="387" text-anchor="middle" font-family="Arial" font-size="13" fill="#fff">19/20</text><rect x="599" y="360" width="70" height="42" rx="4" fill="rgb(123,123,123)"/><text x="634" y="387" text-anchor="middle" font-family="Arial" font-size="13" fill="#fff">8/10</text><rect x="675" y="360" width="70" height="42" rx="4" fill="rgb(95,95,95)"/><text x="710" y="387" text-anchor="middle" font-family="Arial" font-size="13" fill="#fff">15/15</text><rect x="751" y="360" width="70" height="42" rx="4" fill="rgb(114,114,114)"/><text x="786" y="387" text-anchor="middle" font-family="Arial" font-size="13" fill="#fff">13/15</text><rect x="827" y="360" width="70" height="42" rx="4" fill="rgb(114,114,114)"/><text x="862" y="387" text-anchor="middle" font-family="Arial" font-size="13" fill="#fff">13/15</text><rect x="903" y="360" width="70" height="42" rx="4" fill="rgb(109,109,109)"/><text x="938" y="387" text-anchor="middle" font-family="Arial" font-size="13" fill="#fff">9/10</text><rect x="979" y="360" width="70" height="42" rx="4" fill="rgb(115,115,115)"/><text x="1014" y="387" text-anchor="middle" font-family="Arial" font-size="13" fill="#fff">6/7</text><rect x="1055" y="360" width="70" height="42" rx="4" fill="rgb(130,130,130)"/><text x="1090" y="387" text-anchor="middle" font-family="Arial" font-size="13" fill="#111">6/8</text><text x="40" y="436" font-family="Arial" font-size="13">7. Compass Brazil</text><rect x="523" y="408" width="70" height="42" rx="4" fill="rgb(151,151,151)"/><text x="558" y="435" text-anchor="middle" font-family="Arial" font-size="13" fill="#111">12/20</text><rect x="599" y="408" width="70" height="42" rx="4" fill="rgb(123,123,123)"/><text x="634" y="435" text-anchor="middle" font-family="Arial" font-size="13" fill="#fff">8/10</text><rect x="675" y="408" width="70" height="42" rx="4" fill="rgb(95,95,95)"/><text x="710" y="435" text-anchor="middle" font-family="Arial" font-size="13" fill="#fff">15/15</text><rect x="751" y="408" width="70" height="42" rx="4" fill="rgb(104,104,104)"/><text x="786" y="435" text-anchor="middle" font-family="Arial" font-size="13" fill="#fff">14/15</text><rect x="827" y="408" width="70" height="42" rx="4" fill="rgb(104,104,104)"/><text x="862" y="435" text-anchor="middle" font-family="Arial" font-size="13" fill="#fff">14/15</text><rect x="903" y="408" width="70" height="42" rx="4" fill="rgb(95,95,95)"/><text x="938" y="435" text-anchor="middle" font-family="Arial" font-size="13" fill="#fff">10/10</text><rect x="979" y="408" width="70" height="42" rx="4" fill="rgb(95,95,95)"/><text x="1014" y="435" text-anchor="middle" font-family="Arial" font-size="13" fill="#fff">7/7</text><rect x="1055" y="408" width="70" height="42" rx="4" fill="rgb(113,113,113)"/><text x="1090" y="435" text-anchor="middle" font-family="Arial" font-size="13" fill="#fff">7/8</text><text x="40" y="484" font-family="Arial" font-size="13">8. Be Brazil</text><rect x="523" y="456" width="70" height="42" rx="4" fill="rgb(151,151,151)"/><text x="558" y="483" text-anchor="middle" font-family="Arial" font-size="13" fill="#111">12/20</text><rect x="599" y="456" width="70" height="42" rx="4" fill="rgb(123,123,123)"/><text x="634" y="483" text-anchor="middle" font-family="Arial" font-size="13" fill="#fff">8/10</text><rect x="675" y="456" width="70" height="42" rx="4" fill="rgb(104,104,104)"/><text x="710" y="483" text-anchor="middle" font-family="Arial" font-size="13" fill="#fff">14/15</text><rect x="751" y="456" width="70" height="42" rx="4" fill="rgb(104,104,104)"/><text x="786" y="483" text-anchor="middle" font-family="Arial" font-size="13" fill="#fff">14/15</text><rect x="827" y="456" width="70" height="42" rx="4" fill="rgb(114,114,114)"/><text x="862" y="483" text-anchor="middle" font-family="Arial" font-size="13" fill="#fff">13/15</text><rect x="903" y="456" width="70" height="42" rx="4" fill="rgb(95,95,95)"/><text x="938" y="483" text-anchor="middle" font-family="Arial" font-size="13" fill="#fff">10/10</text><rect x="979" y="456" width="70" height="42" rx="4" fill="rgb(95,95,95)"/><text x="1014" y="483" text-anchor="middle" font-family="Arial" font-size="13" fill="#fff">7/7</text><rect x="1055" y="456" width="70" height="42" rx="4" fill="rgb(95,95,95)"/><text x="1090" y="483" text-anchor="middle" font-family="Arial" font-size="13" fill="#fff">8/8</text><text x="40" y="532" font-family="Arial" font-size="13">9. BCD Meetings &amp; Events Brazil</text><rect x="523" y="504" width="70" height="42" rx="4" fill="rgb(165,165,165)"/><text x="558" y="531" text-anchor="middle" font-family="Arial" font-size="13" fill="#111">10/20</text><rect x="599" y="504" width="70" height="42" rx="4" fill="rgb(137,137,137)"/><text x="634" y="531" text-anchor="middle" font-family="Arial" font-size="13" fill="#111">7/10</text><rect x="675" y="504" width="70" height="42" rx="4" fill="rgb(95,95,95)"/><text x="710" y="531" text-anchor="middle" font-family="Arial" font-size="13" fill="#fff">15/15</text><rect x="751" y="504" width="70" height="42" rx="4" fill="rgb(95,95,95)"/><text x="786" y="531" text-anchor="middle" font-family="Arial" font-size="13" fill="#fff">15/15</text><rect x="827" y="504" width="70" height="42" rx="4" fill="rgb(114,114,114)"/><text x="862" y="531" text-anchor="middle" font-family="Arial" font-size="13" fill="#fff">13/15</text><rect x="903" y="504" width="70" height="42" rx="4" fill="rgb(95,95,95)"/><text x="938" y="531" text-anchor="middle" font-family="Arial" font-size="13" fill="#fff">10/10</text><rect x="979" y="504" width="70" height="42" rx="4" fill="rgb(95,95,95)"/><text x="1014" y="531" text-anchor="middle" font-family="Arial" font-size="13" fill="#fff">7/7</text><rect x="1055" y="504" width="70" height="42" rx="4" fill="rgb(95,95,95)"/><text x="1090" y="531" text-anchor="middle" font-family="Arial" font-size="13" fill="#fff">8/8</text><text x="40" y="580" font-family="Arial" font-size="13">10. Liberty International Tourism Group</text><rect x="523" y="552" width="70" height="42" rx="4" fill="rgb(165,165,165)"/><text x="558" y="579" text-anchor="middle" font-family="Arial" font-size="13" fill="#111">10/20</text><rect x="599" y="552" width="70" height="42" rx="4" fill="rgb(123,123,123)"/><text x="634" y="579" text-anchor="middle" font-family="Arial" font-size="13" fill="#fff">8/10</text><rect x="675" y="552" width="70" height="42" rx="4" fill="rgb(104,104,104)"/><text x="710" y="579" text-anchor="middle" font-family="Arial" font-size="13" fill="#fff">14/15</text><rect x="751" y="552" width="70" height="42" rx="4" fill="rgb(104,104,104)"/><text x="786" y="579" text-anchor="middle" font-family="Arial" font-size="13" fill="#fff">14/15</text><rect x="827" y="552" width="70" height="42" rx="4" fill="rgb(104,104,104)"/><text x="862" y="579" text-anchor="middle" font-family="Arial" font-size="13" fill="#fff">14/15</text><rect x="903" y="552" width="70" height="42" rx="4" fill="rgb(95,95,95)"/><text x="938" y="579" text-anchor="middle" font-family="Arial" font-size="13" fill="#fff">10/10</text><rect x="979" y="552" width="70" height="42" rx="4" fill="rgb(115,115,115)"/><text x="1014" y="579" text-anchor="middle" font-family="Arial" font-size="13" fill="#fff">6/7</text><rect x="1055" y="552" width="70" height="42" rx="4" fill="rgb(95,95,95)"/><text x="1090" y="579" text-anchor="middle" font-family="Arial" font-size="13" fill="#fff">8/8</text><text x="40" y="630" font-family="Arial" font-size="13">C1 business program · C2 translators · C3 logistics · C4 scale · C5 flexibility · C6 MICE · C7 B2B · C8 evidence</text><text x="40" y="654" font-family="Arial" font-size="13">Полные значения: SCORE_MATRIX.csv</text></svg>